<?xml version="1.0" encoding="UTF-8"?>
<svg version="1.1" xmlns="http://www.w3.org/2000/svg" width="330" height="162">
<path d="M0 0 C108.9 0 217.8 0 330 0 C330 53.46 330 106.92 330 162 C221.1 162 112.2 162 0 162 C0 108.54 0 55.08 0 0 Z " fill="#FCFCFD" transform="translate(0,0)"/>
<path d="M0 0 C17.82 0 35.64 0 54 0 C54.495 6.93 54.495 6.93 55 14 C57.03032376 21.7345667 59.8538325 28.67906151 67 33 C71.59070468 33.86617069 74.36895988 33.12337569 78.1875 30.625 C87.44063952 22.87527193 86.64435512 11.52298151 88 0 C105.82 0 123.64 0 142 0 C142 4.95 142 9.9 142 15 C140.35 15 138.7 15 137 15 C137 17.31 137 19.62 137 22 C138.65 22 140.3 22 142 22 C142 24.97 142 27.94 142 31 C141.34 31 140.68 31 140 31 C140.33 31.61875 140.66 32.2375 141 32.875 C142.40387684 37.26211512 142.15967523 41.43151427 142 46 C140.1746875 45.7525 140.1746875 45.7525 138.3125 45.5 C131.74704042 45.55073771 127.34977556 49.07843896 122.05957031 52.63867188 C117.97732204 55.33694314 113.79097069 57.87127398 109.625 60.4375 C108.72128662 60.99800049 107.81757324 61.55850098 106.88647461 62.13598633 C100.96210575 65.80863614 94.99626217 69.40252136 88.99560547 72.94873047 C84.4623027 75.65447804 80.17498928 78.61875804 75.953125 81.78515625 C74 83 74 83 71 83 C70.970271 81.42532959 70.970271 81.42532959 70.93994141 79.81884766 C70.86397802 75.93106739 70.77524702 72.04366597 70.68261719 68.15625 C70.64428896 66.47240671 70.60944288 64.78848045 70.578125 63.10449219 C70.53255713 60.68654694 70.47455077 58.26917472 70.4140625 55.8515625 C70.40251129 55.0963028 70.39096008 54.34104309 70.37905884 53.56289673 C70.39669934 49.32174802 70.39669934 49.32174802 68 46 C61.63033149 46.10521689 57.43055892 48.78913815 52.1875 52.1875 C50.68130066 53.13981511 49.17478807 54.09163493 47.66796875 55.04296875 C46.90460205 55.52942871 46.14123535 56.01588867 45.35473633 56.51708984 C42.14246776 58.54003637 38.88627738 60.48539178 35.62670898 62.4309082 C30.88318864 65.26449918 26.16078469 68.13285038 21.4375 71 C20.46103516 71.59039062 19.48457031 72.18078125 18.47851562 72.7890625 C13.1155291 76.04631452 7.84082657 79.38649388 2.66430664 82.93359375 C1 84 1 84 0 84 C0 56.28 0 28.56 0 0 Z " fill="#EB430C" transform="translate(91,14)"/>
<path d="M0 0 C1.6418457 1.01879883 1.6418457 1.01879883 3 3 C3.26156261 5.72906362 3.34921131 8.2246099 3.29296875 10.94921875 C3.28872391 11.72183548 3.28447906 12.49445221 3.28010559 13.29048157 C3.26332183 15.75650992 3.22567147 18.22171896 3.1875 20.6875 C3.17245271 22.36001423 3.15876438 24.03254128 3.14648438 25.70507812 C3.11341946 29.80370078 3.06164028 33.90171151 3 38 C8.29122459 35.00745691 8.29122459 35.00745691 13.48046875 31.84375 C14.07690186 31.46718262 14.67333496 31.09061523 15.2878418 30.70263672 C15.914729 30.3057666 16.54161621 29.90889648 17.1875 29.5 C23.47357958 25.54439495 29.81256144 21.68561304 36.1875 17.875 C49.35942919 10.13963674 49.35942919 10.13963674 62.1484375 1.8046875 C65.43925584 -0.27799479 67.17625735 -0.52141945 71 0 C73 2 73 2 73.24050903 4.67019653 C73.23606781 5.80270844 73.23162659 6.93522034 73.22705078 8.10205078 C73.22682419 10.02381638 73.22682419 10.02381638 73.22659302 11.98440552 C73.21637895 13.38804274 73.20594695 14.7916784 73.1953125 16.1953125 C73.19158291 17.62734785 73.18873569 19.05938575 73.18673706 20.49142456 C73.17909627 24.26278717 73.15944408 28.03399604 73.1373291 31.80529785 C73.11688019 35.65272949 73.1077374 39.50018594 73.09765625 43.34765625 C73.0761985 50.89850764 73.04205732 58.44923229 73 66 C71.02090602 66.02686553 69.04171029 66.04633375 67.0625 66.0625 C65.96035156 66.07410156 64.85820312 66.08570312 63.72265625 66.09765625 C61 66 61 66 60 65 C59.90646837 63.31198015 59.88255209 61.62004793 59.88647461 59.92944336 C59.88655014 58.84839828 59.88662567 57.76735321 59.88670349 56.65354919 C59.89186478 55.4775264 59.89702606 54.3015036 59.90234375 53.08984375 C59.90446617 51.29408653 59.90446617 51.29408653 59.90663147 49.46205139 C59.91225021 45.62050934 59.92480589 41.77902457 59.9375 37.9375 C59.94251259 35.34049563 59.94707591 32.74349035 59.95117188 30.14648438 C59.96222573 23.76430321 59.97898208 17.3821557 60 11 C45.66708725 19.74801615 45.66708725 19.74801615 31.375 28.5625 C30.07695435 29.36530396 30.07695435 29.36530396 28.75268555 30.18432617 C24.55058652 32.78595677 20.35765171 35.40045842 16.18359375 38.046875 C15.44254395 38.51536865 14.70149414 38.9838623 13.93798828 39.46655273 C12.55495889 40.34234426 11.17428739 41.2218742 9.79638672 42.10571289 C5.22211378 45 5.22211378 45 3 45 C3 51.93 3 58.86 3 66 C-10.86 66 -24.72 66 -39 66 C-33.37744767 60.37744767 -33.37744767 60.37744767 -30.44140625 58.68359375 C-29.80783203 58.31169922 -29.17425781 57.93980469 -28.52148438 57.55664062 C-27.87501953 57.18732422 -27.22855469 56.81800781 -26.5625 56.4375 C-25.2712952 55.68764285 -23.98091985 54.9363555 -22.69140625 54.18359375 C-22.07152832 53.82378418 -21.45165039 53.46397461 -20.81298828 53.09326172 C-19.04602617 52.02775454 -17.35043499 50.89405576 -15.65234375 49.72265625 C-13 48 -13 48 -11 48 C-11 36.12 -11 24.24 -11 12 C-17.10921021 15.0546051 -22.81667422 17.96558429 -28.5 21.625 C-29.88086801 22.50231403 -31.2624051 23.37857564 -32.64453125 24.25390625 C-33.35432129 24.7039502 -34.06411133 25.15399414 -34.79541016 25.61767578 C-37.80387533 27.50404675 -40.84377571 29.33645266 -43.88378906 31.17138672 C-51.18356054 35.57940896 -58.28073944 40.14381251 -65.203125 45.125 C-68.04453045 47.02985281 -70.93133764 48.49615222 -74 50 C-75.66154727 51.01641402 -77.30740561 52.05887192 -78.9375 53.125 C-79.88496094 53.72699219 -80.83242187 54.32898438 -81.80859375 54.94921875 C-83.47679563 56.0211967 -85.14332016 57.09623763 -86.78955078 58.20166016 C-94.79071207 63.57127271 -100.94328282 67.69354281 -111 66 C-105.75595534 60.07194951 -98.62819209 56.2693463 -91.75390625 52.52734375 C-80.35321951 46.20440968 -69.2680542 39.34821432 -58.23828125 32.40527344 C-47.57604945 25.711141 -36.90532548 19.03388454 -25.98828125 12.76171875 C-21.35243487 10.02869036 -16.80416289 7.15716382 -12.25268555 4.28637695 C-4.720281 -0.46051522 -4.720281 -0.46051522 0 0 Z " fill="#110AEE" transform="translate(159,59)"/>
<path d="M0 0 C0.33 18.15 0.66 36.3 1 55 C-18.14 55 -37.28 55 -57 55 C-57 48.07 -57 41.14 -57 34 C-50.48557939 28.66371929 -50.48557939 28.66371929 -47.0234375 27.30078125 C-41.16174604 24.7542691 -35.85367675 21.34293349 -30.45892334 17.94717407 C-27.7292725 16.23459821 -24.98018293 14.5536958 -22.234375 12.8671875 C-1.4165724 0 -1.4165724 0 0 0 Z " fill="#FDCE03" transform="translate(219,70)"/>
<path d="M0 0 C2.85357523 31.26981884 2.85357523 31.26981884 -1.62158203 38.68798828 C-5.71295436 42.52455469 -10.54104591 44.4759639 -15.81152344 46.22070312 C-18.72448524 47.25798269 -21.06647474 48.82005665 -23.5625 50.625 C-24.22378906 51.07101563 -24.88507813 51.51703125 -25.56640625 51.9765625 C-26.98424829 52.92936387 -26.98424829 52.92936387 -28 54 C-30.07262076 54.08767112 -32.14820294 54.10695873 -34.22265625 54.09765625 C-35.48271484 54.09443359 -36.74277344 54.09121094 -38.04101562 54.08789062 C-39.38151109 54.07953403 -40.72200588 54.07106907 -42.0625 54.0625 C-43.40689942 54.0574866 -44.7513006 54.05292342 -46.09570312 54.04882812 C-49.39717941 54.03699488 -52.69856803 54.02050971 -56 54 C-57.94009247 35.6536897 -57.94009247 35.6536897 -53.9609375 30.2109375 C-51.35993352 28.52709195 -48.76447717 27.15272358 -45.92919922 25.90625 C-43.10363646 24.5789292 -40.52117812 22.91956758 -37.88256836 21.25756836 C-35.63781949 19.84370863 -33.3733298 18.46763163 -31.1015625 17.09765625 C-27.33161324 14.81631897 -23.58086395 12.50577269 -19.8359375 10.18359375 C-18.79477783 9.54115723 -17.75361816 8.8987207 -16.6809082 8.23681641 C-14.62689311 6.9693188 -12.57586124 5.69697204 -10.52807617 4.41943359 C-9.5919751 3.84402832 -8.65587402 3.26862305 -7.69140625 2.67578125 C-6.85810791 2.15927002 -6.02480957 1.64275879 -5.16625977 1.1105957 C-3 0 -3 0 0 0 Z " fill="#FCC803" transform="translate(148,71)"/>
<path d="M0 0 C6.6 0 13.2 0 20 0 C20 18.48 20 36.96 20 56 C13.4 56 6.8 56 0 56 C0 37.52 0 19.04 0 0 Z " fill="#0000FC" transform="translate(240,69)"/>
<path d="M0 0 C2.875 -0.125 2.875 -0.125 6 0 C8 2 8 2 8.24050903 4.67019653 C8.23606781 5.80270844 8.23162659 6.93522034 8.22705078 8.10205078 C8.22682419 10.02381638 8.22682419 10.02381638 8.22659302 11.98440552 C8.21637895 13.38804274 8.20594695 14.7916784 8.1953125 16.1953125 C8.19158291 17.62734785 8.18873569 19.05938575 8.18673706 20.49142456 C8.17909627 24.26278717 8.15944408 28.03399604 8.1373291 31.80529785 C8.11688019 35.65272949 8.1077374 39.50018594 8.09765625 43.34765625 C8.07619848 50.89851575 8.04101286 58.44921676 8 66 C4.04 66 0.08 66 -4 66 C-4.22115173 58.50726808 -4.4249725 51.01444765 -4.59840012 43.52046585 C-4.67962332 40.04058782 -4.76839699 36.56124627 -4.87451172 33.08203125 C-4.99620653 29.08107894 -5.08490131 25.07998372 -5.171875 21.078125 C-5.21439392 19.83009094 -5.25691284 18.58205688 -5.30072021 17.29620361 C-5.32104309 16.13530212 -5.34136597 14.97440063 -5.36230469 13.77832031 C-5.38895203 12.75683899 -5.41559937 11.73535767 -5.4430542 10.68292236 C-4.88145152 7.28212764 -3.54011569 6.23298878 -1 4 C-0.2127322 1.8618034 -0.2127322 1.8618034 0 0 Z " fill="#0301F9" transform="translate(224,59)"/>
<path d="M0 0 C0.82346924 -0.00684814 1.64693848 -0.01369629 2.49536133 -0.02075195 C8.75744299 0.16444941 12.48923458 1.88226757 17.0546875 6.3203125 C20.375 10.46527778 20.375 10.46527778 20.375 12.6875 C7.835 12.6875 -4.705 12.6875 -17.625 12.6875 C-17.625 6.78908014 -17.625 6.78908014 -14.8125 3.875 C-10.22149437 0.08638635 -5.71599965 0.02453219 0 0 Z " fill="#1716FC" transform="translate(249.625,12.3125)"/>
<path d="M0 0 C6.24795675 -0.02527124 12.49590041 -0.04283344 18.74389648 -0.05493164 C20.87118014 -0.05997298 22.99846031 -0.06680591 25.12573242 -0.07543945 C28.17627826 -0.08751379 31.22677845 -0.09323014 34.27734375 -0.09765625 C35.71327126 -0.10539818 35.71327126 -0.10539818 37.1782074 -0.11329651 C38.49946373 -0.11340981 38.49946373 -0.11340981 39.84741211 -0.11352539 C40.62684677 -0.115746 41.40628143 -0.11796661 42.20933533 -0.12025452 C44 0 44 0 45 1 C45.125 3.5 45.125 3.5 45 6 C44 7 44 7 42.20933533 7.12025452 C41.42990067 7.11803391 40.650466 7.11581329 39.84741211 7.11352539 C38.96657455 7.11344986 38.085737 7.11337433 37.1782074 7.11329651 C36.22092239 7.10813522 35.26363739 7.10297394 34.27734375 7.09765625 C33.30213272 7.0962413 32.32692169 7.09482635 31.32215881 7.09336853 C28.19390857 7.08775133 25.06572877 7.07519593 21.9375 7.0625 C19.82226666 7.05748722 17.70703219 7.05292393 15.59179688 7.04882812 C10.39450704 7.03777631 5.19725855 7.02102146 0 7 C0 4.69 0 2.38 0 0 Z " fill="#0202FE" transform="translate(228,29)"/>
<path d="M0 0 C1.65 0 3.3 0 5 0 C5.66 2.64 6.32 5.28 7 8 C8.32 5.36 9.64 2.72 11 0 C12.32 0 13.64 0 15 0 C15 3.3 15 6.6 15 10 C17.19117773 9.17798016 17.19117773 9.17798016 17.8515625 6.93359375 C18.23441406 5.69802734 18.23441406 5.69802734 18.625 4.4375 C18.88539062 3.61121094 19.14578125 2.78492188 19.4140625 1.93359375 C19.60742188 1.29550781 19.80078125 0.65742188 20 0 C21.32 0 22.64 0 24 0 C24.19335938 0.63808594 24.38671875 1.27617187 24.5859375 1.93359375 C24.97652344 3.17302734 24.97652344 3.17302734 25.375 4.4375 C25.63023438 5.26121094 25.88546875 6.08492187 26.1484375 6.93359375 C26.80882227 9.17798016 26.80882227 9.17798016 29 10 C29 6.7 29 3.4 29 0 C33 1 33 1 34.75 3.5625 C35.1625 4.366875 35.575 5.17125 36 6 C36.33 4.02 36.66 2.04 37 0 C37.66 0 38.32 0 39 0 C39 3.96 39 7.92 39 12 C35 11 35 11 33.25 8.4375 C32.8375 7.633125 32.425 6.82875 32 6 C31.67 7.98 31.34 9.96 31 12 C28.125 12.125 28.125 12.125 25 12 C24.34 11.34 23.68 10.68 23 10 C20.21762345 10.40528901 20.21762345 10.40528901 18 12 C16.00041636 12.04080783 13.99954746 12.04254356 12 12 C12 9.03 12 6.06 12 3 C11.01 5.97 10.02 8.94 9 12 C7.68 11.67 6.36 11.34 5 11 C4.34 8.36 3.68 5.72 3 3 C3 5.97 3 8.94 3 12 C2.01 12 1.02 12 0 12 C0 8.04 0 4.08 0 0 Z " fill="#3B3B3C" transform="translate(88,136)"/>
<path d="M0 0 C12.87 0 25.74 0 39 0 C37 4 37 4 36 5 C33.40640678 5.08851529 30.83960309 5.11525945 28.24609375 5.09765625 C27.47064713 5.0962413 26.6952005 5.09482635 25.89625549 5.09336853 C23.40996506 5.08775345 20.9237634 5.07519846 18.4375 5.0625 C16.75586067 5.05748694 15.07421994 5.0529237 13.39257812 5.04882812 C9.26168434 5.03777913 5.13085724 5.02050445 1 5 C0.67 3.35 0.34 1.7 0 0 Z " fill="#1619FB" transform="translate(231,45)"/>
<path d="M0 0 C0.33 0 0.66 0 1 0 C1.02283554 0.63797012 1.04567108 1.27594025 1.06919861 1.9332428 C1.31160346 8.700569 1.55525364 15.46784962 1.79956055 22.23510742 C1.89003571 24.74551308 1.98021519 27.25592942 2.07006836 29.76635742 C2.64588824 45.84749473 3.27087888 61.92503939 4 78 C4.99 78 5.98 78 7 78 C7 78.66 7 79.32 7 80 C4.69 81.32 2.38 82.64 0 84 C0 56.28 0 28.56 0 0 Z " fill="#DDA564" transform="translate(91,14)"/>
<path d="M0 0 C17.49 0 34.98 0 53 0 C53 0.66 53 1.32 53 2 C50.56304285 2.22181406 48.126474 2.42791119 45.6875 2.625 C44.65206055 2.72167969 44.65206055 2.72167969 43.59570312 2.8203125 C39.7440028 3.11802847 38.31145584 3.20763723 35 1 C34.67 1.66 34.34 2.32 34 3 C32.68 3 31.36 3 30 3 C28.5051855 3.02193294 27.01039403 3.04547305 25.515625 3.0703125 C23.76042013 3.08887207 22.00521162 3.10708968 20.25 3.125 C18.94675781 3.15013672 18.94675781 3.15013672 17.6171875 3.17578125 C12.05024367 3.21757512 7.34316662 2.57809805 2 1 C2.03552979 1.65597168 2.07105957 2.31194336 2.10766602 2.98779297 C2.26493583 5.94992662 2.4138205 8.91242329 2.5625 11.875 C2.61857422 12.90753906 2.67464844 13.94007812 2.73242188 15.00390625 C2.78076172 15.99003906 2.82910156 16.97617187 2.87890625 17.9921875 C2.9260376 18.90339355 2.97316895 19.81459961 3.02172852 20.75341797 C3 23 3 23 2 25 C2.66 25.33 3.32 25.66 4 26 C3.01 26 2.02 26 1 26 C0.67 17.42 0.34 8.84 0 0 Z " fill="#E81414" transform="translate(92,14)"/>
<path d="M0 0 C17.82 0 35.64 0 54 0 C53.67 3.3 53.34 6.6 53 10 C52.67 10 52.34 10 52 10 C52 7.36 52 4.72 52 2 C51.13375 2.2784375 51.13375 2.2784375 50.25 2.5625 C47.79307475 3.04023546 46.35602466 2.75729364 44 2 C43.67 2.66 43.34 3.32 43 4 C42.42185547 3.83628906 41.84371094 3.67257813 41.24804688 3.50390625 C37.69806631 2.70816777 34.11786664 2.93857612 30.5 3 C22.508559 3.13567812 22.508559 3.13567812 19.87695312 2.43359375 C17.92405338 1.77253281 17.92405338 1.77253281 16 3 C15.030625 2.835 14.06125 2.67 13.0625 2.5 C9.97047565 1.75153105 9.97047565 1.75153105 7 3 C4.3125 2.5625 4.3125 2.5625 2 2 C2 4.97 2 7.94 2 11 C1.34 11 0.68 11 0 11 C0 7.37 0 3.74 0 0 Z " fill="#E41417" transform="translate(179,14)"/>
<path d="M0 0 C1.65 0 3.3 0 5 0 C5.99 2.31 6.98 4.62 8 7 C8.66 5.02 9.32 3.04 10 1 C11.65 0.67 13.3 0.34 15 0 C15 3.96 15 7.92 15 12 C14.01 12 13.02 12 12 12 C11.67 10.68 11.34 9.36 11 8 C10.34 9.32 9.68 10.64 9 12 C7.68 11.67 6.36 11.34 5 11 C4.67 9.02 4.34 7.04 4 5 C3.67 7.31 3.34 9.62 3 12 C2.01 12 1.02 12 0 12 C0 8.04 0 4.08 0 0 Z " fill="#4C4C4F" transform="translate(29,136)"/>
<path d="M0 0 C3.5 -0.3125 3.5 -0.3125 7 0 C9 2 9 2 9.25 5.4375 C9 9 9 9 7 12 C3.5 12.3125 3.5 12.3125 0 12 C-2 10 -2 10 -2.25 6.5625 C-2 3 -2 3 0 0 Z " fill="#2A2A2C" transform="translate(272,136)"/>
<path d="M0 0 C2.33294775 -0.04241723 4.66702567 -0.04092937 7 0 C8 1 8 1 8.09765625 2.84765625 C8.04882812 5.92382812 8.04882812 5.92382812 8 9 C8.66 9.33 9.32 9.66 10 10 C10 6.7 10 3.4 10 0 C10.99 0 11.98 0 13 0 C13 3.96 13 7.92 13 12 C10.69 12 8.38 12 6 12 C5.67 10.35 5.34 8.7 5 7 C4.01 7 3.02 7 2 7 C2 8.65 2 10.3 2 12 C1.34 12 0.68 12 0 12 C0 8.04 0 4.08 0 0 Z " fill="#414041" transform="translate(195,136)"/>
<path d="M0 0 C2.64 0 5.28 0 8 0 C8 0.66 8 1.32 8 2 C6.02 2 4.04 2 2 2 C2.33 2.66 2.66 3.32 3 4 C5.02463255 4.65213292 5.02463255 4.65213292 7 5 C7 5.66 7 6.32 7 7 C5.35 7 3.7 7 2 7 C2.33 7.66 2.66 8.32 3 9 C6.3 9 9.6 9 13 9 C11.68 8.01 10.36 7.02 9 6 C8.6875 3.375 8.6875 3.375 9 1 C10 0 10 0 13.0625 -0.0625 C14.5165625 -0.0315625 14.5165625 -0.0315625 16 0 C16 0.66 16 1.32 16 2 C14.35 2 12.7 2 11 2 C12.25541557 4.51083114 13.50063488 4.87125446 16 6 C16.042721 7.66611905 16.04063832 9.33382885 16 11 C15 12 15 12 11.62109375 12.09765625 C10.22652923 12.09098369 8.83198257 12.07902532 7.4375 12.0625 C6.37112305 12.05573242 6.37112305 12.05573242 5.28320312 12.04882812 C3.52209987 12.03700864 1.76103964 12.01907263 0 12 C0 8.04 0 4.08 0 0 Z " fill="#353436" transform="translate(296,136)"/>
<path d="M0 0 C6.0546875 -0.1953125 6.0546875 -0.1953125 8 0 C10 2 10 2 10.25 5.4375 C10 9 10 9 8 12 C6.0546875 12.29296875 6.0546875 12.29296875 3.875 12.1875 C1.956875 12.0946875 1.956875 12.0946875 0 12 C0 8.04 0 4.08 0 0 Z " fill="#1D1D1E" transform="translate(258,136)"/>
<path d="M0 0 C11.55 0 23.1 0 35 0 C35.495 0.99 35.495 0.99 36 2 C32.93405406 3.53297297 29.72888147 3.12131455 26.3671875 3.09765625 C25.23943405 3.09553383 25.23943405 3.09553383 24.08889771 3.09336853 C21.6842249 3.08776465 19.27964473 3.07521157 16.875 3.0625 C15.24609509 3.0574855 13.61718873 3.0529225 11.98828125 3.04882812 C7.99215173 3.03779397 3.99609158 3.02052679 0 3 C0 2.01 0 1.02 0 0 Z " fill="#FDFDF9" transform="translate(233,25)"/>
<path d="M0 0 C0.66 0 1.32 0 2 0 C2 3.3 2 6.6 2 10 C2.99 10 3.98 10 5 10 C5.66 6.7 6.32 3.4 7 0 C8.65 0.33 10.3 0.66 12 1 C12.33 3.97 12.66 6.94 13 10 C13.66 10 14.32 10 15 10 C15 10.66 15 11.32 15 12 C14.4225 11.835 13.845 11.67 13.25 11.5 C10.73335631 10.85537969 10.73335631 10.85537969 7 11 C6.67 11.33 6.34 11.66 6 12 C4.02 12 2.04 12 0 12 C0 8.04 0 4.08 0 0 Z " fill="#323235" transform="translate(315,136)"/>
<path d="M0 0 C5.61 0 11.22 0 17 0 C17 0.66 17 1.32 17 2 C16.01 2 15.02 2 14 2 C14 5.3 14 8.6 14 12 C13.01 12 12.02 12 11 12 C11 8.7 11 5.4 11 2 C8.03 2 5.06 2 2 2 C2 2.99 2 3.98 2 5 C3.32 4.67 4.64 4.34 6 4 C5.67 4.99 5.34 5.98 5 7 C4.01 7 3.02 7 2 7 C2 7.99 2 8.98 2 10 C3.32 10 4.64 10 6 10 C6 10.66 6 11.32 6 12 C4.02 12 2.04 12 0 12 C0 8.04 0 4.08 0 0 Z " fill="#37373B" transform="translate(47,136)"/>
<path d="M0 0 C14.52 0 29.04 0 44 0 C44 0.33 44 0.66 44 1 C30.47 1.33 16.94 1.66 3 2 C2.34 3.32 1.68 4.64 1 6 C15.19 6 29.38 6 44 6 C44 6.33 44 6.66 44 7 C29.48 7 14.96 7 0 7 C0 4.69 0 2.38 0 0 Z " fill="#2B27FA" transform="translate(228,29)"/>
<path d="M0 0 C0.66 0 1.32 0 2 0 C2 1.65 2 3.3 2 5 C2.66 5 3.32 5 4 5 C4.33 3.35 4.66 1.7 5 0 C9.29 0 13.58 0 18 0 C18 0.66 18 1.32 18 2 C17.01 2 16.02 2 15 2 C15 5.3 15 8.6 15 12 C14.34 12 13.68 12 13 12 C13 8.7 13 5.4 13 2 C10.69 2 8.38 2 6 2 C6.33 4.64 6.66 7.28 7 10 C7.66 10 8.32 10 9 10 C9 10.66 9 11.32 9 12 C7.125 11.75 7.125 11.75 5 11 C3.75 8.9375 3.75 8.9375 3 7 C2.67 8.65 2.34 10.3 2 12 C1.34 12 0.68 12 0 12 C0 8.04 0 4.08 0 0 Z " fill="#3B3B3C" transform="translate(162,136)"/>
<path d="M0 0 C7.26 0 14.52 0 22 0 C22 0.99 22 1.98 22 3 C16.31422184 5.52701252 10.11721326 5.79234099 4 5 C1.6328125 3.60546875 1.6328125 3.60546875 0 2 C0 1.34 0 0.68 0 0 Z " fill="#3033F8" transform="translate(239,53)"/>
<path d="M0 0 C1.65 0 3.3 0 5 0 C5.66 2.64 6.32 5.28 7 8 C8.32 5.36 9.64 2.72 11 0 C11.99 0 12.98 0 14 0 C14 3.63 14 7.26 14 11 C13.34 11 12.68 11 12 11 C12 8.36 12 5.72 12 3 C11.01 5.97 10.02 8.94 9 12 C7.68 11.67 6.36 11.34 5 11 C4.34 8.36 3.68 5.72 3 3 C3 5.97 3 8.94 3 12 C2.01 12 1.02 12 0 12 C0 8.04 0 4.08 0 0 Z " fill="#2F2F31" transform="translate(88,136)"/>
<path d="M0 0 C11.22 0 22.44 0 34 0 C33.01 0.33 32.02 0.66 31 1 C29.79117904 3.00016466 29.79117904 3.00016466 29 5 C28.67 4.34 28.34 3.68 28 3 C27.40050537 3.01047363 26.80101074 3.02094727 26.18334961 3.03173828 C23.4347767 3.07362837 20.68627126 3.09943003 17.9375 3.125 C16.99455078 3.14175781 16.05160156 3.15851562 15.08007812 3.17578125 C9.63476062 3.21372771 5.14500612 2.81252643 0 1 C0 0.67 0 0.34 0 0 Z " fill="#FEF6A9" transform="translate(233,50)"/>
<path d="M0 0 C2.475 0.495 2.475 0.495 5 1 C6.3125 3.0625 6.3125 3.0625 7 5 C7.33 3.35 7.66 1.7 8 0 C8.66 0 9.32 0 10 0 C10 3.96 10 7.92 10 12 C8.68 11.67 7.36 11.34 6 11 C5.67 9.02 5.34 7.04 5 5 C4.34 5 3.68 5 3 5 C3 7.31 3 9.62 3 12 C2.01 12 1.02 12 0 12 C0 8.04 0 4.08 0 0 Z " fill="#5F5F60" transform="translate(245,136)"/>
<path d="M0 0 C1.9453125 -0.29296875 1.9453125 -0.29296875 4.125 -0.1875 C5.40375 -0.125625 6.6825 -0.06375 8 0 C7.67 0.99 7.34 1.98 7 3 C5.35 3 3.7 3 2 3 C2 4.98 2 6.96 2 9 C3.32 9.33 4.64 9.66 6 10 C6 9.34 6 8.68 6 8 C5.01 7.67 4.02 7.34 3 7 C3 6.01 3 5.02 3 4 C4.65 4 6.3 4 8 4 C8 6.64 8 9.28 8 12 C6.72125 12.061875 5.4425 12.12375 4.125 12.1875 C3.40570313 12.22230469 2.68640625 12.25710937 1.9453125 12.29296875 C1.30335938 12.19628906 0.66140625 12.09960938 0 12 C-2.31332486 8.53001271 -2.33957563 7.07490752 -2 3 C-1.34 2.01 -0.68 1.02 0 0 Z " fill="#333233" transform="translate(225,136)"/>
<path d="M0 0 C0.33 0 0.66 0 1 0 C1.33 9.9 1.66 19.8 2 30 C6.19159987 27.90420007 10.25893712 25.63474549 14.34375 23.33984375 C16.61664175 22.19337041 18.51687348 21.47437087 21 21 C17.95459911 24.33964252 14.8127299 26.42877227 10.875 28.625 C6.65640842 30.94186904 6.65640842 30.94186904 3 34 C2.01 34 1.02 34 0 34 C0 22.78 0 11.56 0 0 Z " fill="#E8961C" transform="translate(162,63)"/>
<path d="M0 0 C4 1 4 1 5.25 3.0625 C5.4975 3.701875 5.745 4.34125 6 5 C6.33 3.35 6.66 1.7 7 0 C7.66 0 8.32 0 9 0 C9 3.96 9 7.92 9 12 C5 11 5 11 3.75 8.9375 C3.37875 7.9784375 3.37875 7.9784375 3 7 C2.67 8.65 2.34 10.3 2 12 C1.01 12 0.02 12 -1 12 C-0.67 8.04 -0.34 4.08 0 0 Z " fill="#2F2F32" transform="translate(284,136)"/>
<path d="M0 0 C1.32 0 2.64 0 4 0 C4.99 2.31 5.98 4.62 7 7 C7.33 4.69 7.66 2.38 8 0 C8.66 0 9.32 0 10 0 C10 3.96 10 7.92 10 12 C6 11 6 11 4.25 8.4375 C3.8375 7.633125 3.425 6.82875 3 6 C2.67 7.98 2.34 9.96 2 12 C1.34 12 0.68 12 0 12 C0 8.04 0 4.08 0 0 Z " fill="#1E1E1F" transform="translate(211,136)"/>
<path d="M0 0 C1.65 0.33 3.3 0.66 5 1 C5.99 4.63 6.98 8.26 8 12 C7.01 12 6.02 12 5 12 C4.67 11.34 4.34 10.68 4 10 C3.4225 10.144375 2.845 10.28875 2.25 10.4375 C0.78645833 10.80338542 -0.67708333 11.16927083 -2.140625 11.53515625 C-3.06101563 11.76525391 -3.06101563 11.76525391 -4 12 C-2.66666667 8 -1.33333333 4 0 0 Z " fill="#212223" transform="translate(66,136)"/>
<path d="M0 0 C4 1 4 1 5.75 3.5625 C6.1625 4.366875 6.575 5.17125 7 6 C7.33 4.02 7.66 2.04 8 0 C8.66 0 9.32 0 10 0 C10 3.96 10 7.92 10 12 C6 11 6 11 4.25 8.4375 C3.8375 7.633125 3.425 6.82875 3 6 C2.67 7.65 2.34 9.3 2 11 C1.34 11 0.68 11 0 11 C0 7.37 0 3.74 0 0 Z " fill="#1B1B1C" transform="translate(117,136)"/>
<path d="M0 0 C1.32 0.33 2.64 0.66 4 1 C4.99 4.63 5.98 8.26 7 12 C5.68 11.34 4.36 10.68 3 10 C1.6757713 9.63215869 0.34386088 9.28797019 -1 9 C-1.33 9.99 -1.66 10.98 -2 12 C-2.66 12 -3.32 12 -4 12 C-3.52494322 10.18641846 -3.04483958 8.37415821 -2.5625 6.5625 C-2.29566406 5.55316406 -2.02882812 4.54382813 -1.75390625 3.50390625 C-1 1 -1 1 0 0 Z " fill="#3A3B3B" transform="translate(153,136)"/>
<path d="M0 0 C2.33294775 -0.04241723 4.66702567 -0.04092937 7 0 C8 1 8 1 8.0625 4.0625 C8.041875 5.031875 8.02125 6.00125 8 7 C6.35 7.33 4.7 7.66 3 8 C2.67 9.32 2.34 10.64 2 12 C1.34 12 0.68 12 0 12 C0 8.04 0 4.08 0 0 Z " fill="#27272A" transform="translate(1,136)"/>
<path d="M0 0 C0.66 0 1.32 0 2 0 C2.33 2.97 2.66 5.94 3 9 C4.32 9.33 5.64 9.66 7 10 C7 6.7 7 3.4 7 0 C7.99 0 8.98 0 10 0 C10.05422947 1.4370809 10.09289723 2.87475462 10.125 4.3125 C10.14820313 5.11300781 10.17140625 5.91351563 10.1953125 6.73828125 C10 9 10 9 8 12 C5 12.3125 5 12.3125 2 12 C0 10 0 10 -0.1953125 7.6171875 C-0.17210937 6.71226562 -0.14890625 5.80734375 -0.125 4.875 C-0.10695312 3.96492187 -0.08890625 3.05484375 -0.0703125 2.1171875 C-0.04710937 1.41851562 -0.02390625 0.71984375 0 0 Z " fill="#101112" transform="translate(130,136)"/>
<path d="M0 0 C0 1.32 0 2.64 0 4 C-1.65 4 -3.3 4 -5 4 C-5 6.31 -5 8.62 -5 11 C-3.35 11 -1.7 11 0 11 C0 13.97 0 16.94 0 20 C-0.66 20 -1.32 20 -2 20 C-2 17.69 -2 15.38 -2 13 C-3.65 12.67 -5.3 12.34 -7 12 C-7.8125 9.375 -7.8125 9.375 -8 6 C-6.06955902 2.44350292 -4.26405296 0 0 0 Z " fill="#EE3222" transform="translate(233,25)"/>
<path d="M0 0 C0.66 0 1.32 0 2 0 C2.33 2.97 2.66 5.94 3 9 C4.32 9.33 5.64 9.66 7 10 C7.33 6.7 7.66 3.4 8 0 C8.66 0 9.32 0 10 0 C10.05395478 1.62463842 10.09277195 3.24978541 10.125 4.875 C10.14820313 5.77992188 10.17140625 6.68484375 10.1953125 7.6171875 C10 10 10 10 8 12 C5 12.25 5 12.25 2 12 C0 10 0 10 -0.1953125 7.6171875 C-0.17210937 6.71226562 -0.14890625 5.80734375 -0.125 4.875 C-0.10695312 3.96492187 -0.08890625 3.05484375 -0.0703125 2.1171875 C-0.04710937 1.41851562 -0.02390625 0.71984375 0 0 Z " fill="#0E0E0E" transform="translate(182,136)"/>
<path d="M0 0 C2.31 0 4.62 0 7 0 C7 0.66 7 1.32 7 2 C5.68 2 4.36 2 3 2 C3 2.99 3 3.98 3 5 C3.99 5 4.98 5 6 5 C6 5.66 6 6.32 6 7 C5.01 7 4.02 7 3 7 C3 8.65 3 10.3 3 12 C2.01 12 1.02 12 0 12 C0 8.04 0 4.08 0 0 Z " fill="#3C3C3D" transform="translate(142,136)"/>
<path d="M0 0 C0.66 0 1.32 0 2 0 C2 3.3 2 6.6 2 10 C2.99 10 3.98 10 5 10 C5.12375 9.05125 5.2475 8.1025 5.375 7.125 C6 4 6 4 8 2 C7.85950482 3.47968324 7.71245174 4.95874516 7.5625 6.4375 C7.48128906 7.26121094 7.40007812 8.08492187 7.31640625 8.93359375 C7 11 7 11 6 12 C4.02 12 2.04 12 0 12 C0 8.04 0 4.08 0 0 Z " fill="#18181B" transform="translate(315,136)"/>
<path d="M0 0 C2.97 0 5.94 0 9 0 C8.67 0.66 8.34 1.32 8 2 C7.34 2 6.68 2 6 2 C6 5.3 6 8.6 6 12 C5.01 12 4.02 12 3 12 C3 8.7 3 5.4 3 2 C2.01 2 1.02 2 0 2 C0 1.34 0 0.68 0 0 Z " fill="#2E2F31" transform="translate(11,136)"/>
<path d="M0 0 C0 6.6 0 13.2 0 20 C-0.66 20 -1.32 20 -2 20 C-2.03738281 18.86820313 -2.07476562 17.73640625 -2.11328125 16.5703125 C-2.17893082 15.08850795 -2.24537851 13.60673861 -2.3125 12.125 C-2.33505859 11.37863281 -2.35761719 10.63226563 -2.38085938 9.86328125 C-2.47811945 7.900396 -2.73042294 5.94671678 -3 4 C-3.99 3.34 -4.98 2.68 -6 2 C-1.125 0 -1.125 0 0 0 Z " fill="#D2C5C1" transform="translate(92,105)"/>
<path d="M0 0 C0.66 0.33 1.32 0.66 2 1 C-4.99990751 6.09506542 -12.17923111 11.23811117 -20 15 C-20.66 14.67 -21.32 14.34 -22 14 C-20.73299277 13.0158875 -19.4612381 12.03788503 -18.1875 11.0625 C-17.47980469 10.51722656 -16.77210937 9.97195312 -16.04296875 9.41015625 C-14 8 -14 8 -11 7 C-10.67 6.34 -10.34 5.68 -10 5 C-8.34302621 4.30959426 -6.6744239 3.6469365 -5 3 C-4.113125 2.443125 -3.22625 1.88625 -2.3125 1.3125 C-1.549375 0.879375 -0.78625 0.44625 0 0 Z " fill="#F0900D" transform="translate(121,77)"/>
<path d="M0 0 C1.98 0 3.96 0 6 0 C4.68 0.33 3.36 0.66 2 1 C2 2.32 2 3.64 2 5 C3.32 4.67 4.64 4.34 6 4 C5.67 4.99 5.34 5.98 5 7 C4.01 7 3.02 7 2 7 C2 7.99 2 8.98 2 10 C3.32 10 4.64 10 6 10 C6 10.66 6 11.32 6 12 C4.02 12 2.04 12 0 12 C0 8.04 0 4.08 0 0 Z " fill="#0F0E12" transform="translate(47,136)"/>
<path d="M0 0 C1.66611905 -0.042721 3.33382885 -0.04063832 5 0 C6 1 6 1 6.1875 3.4375 C6 6 6 6 4 8 C2.68 8 1.36 8 0 8 C0 5.36 0 2.72 0 0 Z " fill="#EEEEED" transform="translate(273,138)"/>
<path d="M0 0 C1.65 0 3.3 0 5 0 C5 1.32 5 2.64 5 4 C4.34 4 3.68 4 3 4 C3 6.64 3 9.28 3 12 C2.01 12 1.02 12 0 12 C0 8.04 0 4.08 0 0 Z " fill="#434347" transform="translate(29,136)"/>
<path d="M0 0 C0.66 0.33 1.32 0.66 2 1 C-0.13553127 2.42368751 -2.27150947 3.84661766 -4.41015625 5.265625 C-6.11520556 6.40746798 -7.81089258 7.5634371 -9.49609375 8.734375 C-10.28113281 9.27578125 -11.06617188 9.8171875 -11.875 10.375 C-12.59429687 10.87773438 -13.31359375 11.38046875 -14.0546875 11.8984375 C-16 13 -16 13 -19 13 C-19 12.34 -19 11.68 -19 11 C-16.62109375 9.4140625 -16.62109375 9.4140625 -13.4375 7.625 C-12.34566406 7.00882812 -11.25382813 6.39265625 -10.12890625 5.7578125 C-9.09636719 5.17773438 -8.06382812 4.59765625 -7 4 C-5.62443182 3.16760489 -4.24929406 2.33449703 -2.875 1.5 C-1.92625 1.005 -0.9775 0.51 0 0 Z " fill="#EF740F" transform="translate(149,60)"/>
<path d="M0 0 C11.22 0 22.44 0 34 0 C33.01 0.33 32.02 0.66 31 1 C29.79117904 3.00016466 29.79117904 3.00016466 29 5 C28.34 4.01 27.68 3.02 27 2 C24.19189856 1.48895078 24.19189856 1.48895078 20.8984375 1.48828125 C19.68671875 1.45283203 18.475 1.41738281 17.2265625 1.38085938 C15.95554688 1.35830078 14.68453125 1.33574219 13.375 1.3125 C11.456875 1.26125977 11.456875 1.26125977 9.5 1.20898438 C6.33342068 1.12627521 3.16712636 1.05719915 0 1 C0 0.67 0 0.34 0 0 Z " fill="#F7C2B5" transform="translate(233,50)"/>
<path d="M0 0 C0 3.63 0 7.26 0 11 C-0.99 11 -1.98 11 -3 11 C-3.0825 10.21625 -3.165 9.4325 -3.25 8.625 C-3.72806339 5.85250896 -3.72806339 5.85250896 -6.0625 4.6875 C-6.701875 4.460625 -7.34125 4.23375 -8 4 C-8 3.34 -8 2.68 -8 2 C-1.125 0 -1.125 0 0 0 Z " fill="#DEDEDD" transform="translate(315,136)"/>
<path d="M0 0 C0.125 2.375 0.125 2.375 0 5 C-2 7 -2 7 -5.625 7.125 C-6.73875 7.08375 -7.8525 7.0425 -9 7 C-7.4576387 2.93377477 -4.5679954 0 0 0 Z " fill="#D1BF1F" transform="translate(149,113)"/>
<path d="M0 0 C2.475 0.495 2.475 0.495 5 1 C5 2.98 5 4.96 5 7 C3.35 7.33 1.7 7.66 0 8 C0 5.36 0 2.72 0 0 Z " fill="#E3E3E3" transform="translate(261,138)"/>
<path d="M0 0 C0.33 0 0.66 0 1 0 C1.33 7.59 1.66 15.18 2 23 C2.99 23 3.98 23 5 23 C5 23.66 5 24.32 5 25 C3.02 25.99 3.02 25.99 1 27 C0 26 0 26 -0.11352539 23.49975586 C-0.10828857 22.41573486 -0.10305176 21.33171387 -0.09765625 20.21484375 C-0.09443359 19.04501953 -0.09121094 17.87519531 -0.08789062 16.66992188 C-0.07951172 15.43822266 -0.07113281 14.20652344 -0.0625 12.9375 C-0.05798828 11.70193359 -0.05347656 10.46636719 -0.04882812 9.19335938 C-0.03699608 6.12885883 -0.02051173 3.06445279 0 0 Z " fill="#FBA607" transform="translate(93,69)"/>
<path d="M0 0 C1.65322266 0.01740234 1.65322266 0.01740234 3.33984375 0.03515625 C4.99693359 0.04869141 4.99693359 0.04869141 6.6875 0.0625 C7.54214844 0.07410156 8.39679688 0.08570313 9.27734375 0.09765625 C8.61734375 1.41765625 7.95734375 2.73765625 7.27734375 4.09765625 C5.81811682 3.98356032 4.35993777 3.85600081 2.90234375 3.72265625 C1.68417969 3.61824219 1.68417969 3.61824219 0.44140625 3.51171875 C-1.72265625 3.09765625 -1.72265625 3.09765625 -3.72265625 1.09765625 C-2.72265625 0.09765625 -2.72265625 0.09765625 0 0 Z " fill="#0309FE" transform="translate(259.72265625,45.90234375)"/>
<path d="M0 0 C1.875 0.5 1.875 0.5 4 2 C4.98494554 4.65177645 5.45912382 7.20547307 6 10 C5.01 10 4.02 10 3 10 C2.67 9.34 2.34 8.68 2 8 C0.68 8 -0.64 8 -2 8 C-1.47731534 5.23723823 -0.89130413 2.6739124 0 0 Z " fill="#606161" transform="translate(68,138)"/>
<path d="M0 0 C1.65 0 3.3 0 5 0 C5 1.98 5 3.96 5 6 C4.34 5.01 3.68 4.02 3 3 C3 5.97 3 8.94 3 12 C2.01 12 1.02 12 0 12 C0 8.04 0 4.08 0 0 Z " fill="#2E2E2F" transform="translate(88,136)"/>
<path d="M0 0 C0 0.99 0 1.98 0 3 C-3.3 3 -6.6 3 -10 3 C-10.33 2.01 -10.66 1.02 -11 0 C-6.98195309 -0.84098656 -3.98196457 -1.05404945 0 0 Z " fill="#EEEDED" transform="translate(309,143)"/>
<path d="M0 0 C0.99 0 1.98 0 3 0 C3 3.96 3 7.92 3 12 C2.01 12 1.02 12 0 12 C0 8.04 0 4.08 0 0 Z " fill="#494A4A" transform="translate(240,136)"/>
<path d="M0 0 C0.66 0 1.32 0 2 0 C2.33 2.97 2.66 5.94 3 9 C4.32 9.33 5.64 9.66 7 10 C7 10.66 7 11.32 7 12 C4.69 12 2.38 12 0 12 C0 8.04 0 4.08 0 0 Z " fill="#141417" transform="translate(76,136)"/>
<path d="M0 0 C2.97 0 5.94 0 9 0 C9 0.66 9 1.32 9 2 C8.01 2 7.02 2 6 2 C6 5.3 6 8.6 6 12 C5.34 12 4.68 12 4 12 C3.96261719 11.30132812 3.92523438 10.60265625 3.88671875 9.8828125 C3.82097656 8.97273437 3.75523437 8.06265625 3.6875 7.125 C3.62949219 6.22007812 3.57148438 5.31515625 3.51171875 4.3828125 C3.2117961 1.63778399 3.2117961 1.63778399 0 0 Z " fill="#101012" transform="translate(171,136)"/>
<path d="M0 0 C1.65 0 3.3 0 5 0 C4.01 0.495 4.01 0.495 3 1 C3 3.97 3 6.94 3 10 C2.34 10 1.68 10 1 10 C0.67 10.66 0.34 11.32 0 12 C0 8.04 0 4.08 0 0 Z " fill="#434445" transform="translate(258,136)"/>
<path d="M0 0 C0.66 0 1.32 0 2 0 C2 3.96 2 7.92 2 12 C0.68 11.67 -0.64 11.34 -2 11 C-2 9.68 -2 8.36 -2 7 C-1.34 7 -0.68 7 0 7 C0 4.69 0 2.38 0 0 Z " fill="#29292B" transform="translate(291,136)"/>
<path d="M0 0 C0.33 0 0.66 0 1 0 C1.12375 1.134375 1.2475 2.26875 1.375 3.4375 C1.58125 4.613125 1.7875 5.78875 2 7 C2.66 7.33 3.32 7.66 4 8 C4 5.69 4 3.38 4 1 C4.66 0.67 5.32 0.34 6 0 C6.125 7.75 6.125 7.75 5 10 C3.35 9.67 1.7 9.34 0 9 C0 6.03 0 3.06 0 0 Z " fill="#BDBDBD" transform="translate(184,136)"/>
<path d="M0 0 C-2.119212 1.36405618 -4.24448118 2.71631775 -6.375 4.0625 C-6.97828125 4.45244141 -7.5815625 4.84238281 -8.203125 5.24414062 C-9.76492557 6.22460432 -11.37992214 7.11916075 -13 8 C-13.66 7.67 -14.32 7.34 -15 7 C-5.39815527 -1.79938509 -5.39815527 -1.79938509 0 0 Z " fill="#F16F09" transform="translate(219,63)"/>
<path d="M0 0 C1.32 0.33 2.64 0.66 4 1 C3.6875 4.375 3.6875 4.375 3 8 C2.01 8.66 1.02 9.32 0 10 C0 6.7 0 3.4 0 0 Z " fill="#E8E8E7" transform="translate(61,138)"/>
<path d="M0 0 C1.65 0 3.3 0 5 0 C3.515 2.475 3.515 2.475 2 5 C2.99 5.33 3.98 5.66 5 6 C4.01 6.495 4.01 6.495 3 7 C2.34444881 9.52733235 2.34444881 9.52733235 2 12 C1.34 12 0.68 12 0 12 C0 8.04 0 4.08 0 0 Z " fill="#171718" transform="translate(195,136)"/>
<path d="M0 0 C0.99 0 1.98 0 3 0 C3.0270043 1.45823212 3.04639787 2.91660675 3.0625 4.375 C3.07410156 5.18710938 3.08570313 5.99921875 3.09765625 6.8359375 C3 9 3 9 2 11 C1.01 10.67 0.02 10.34 -1 10 C-0.67 6.7 -0.34 3.4 0 0 Z " fill="#424243" transform="translate(137,136)"/>
<path d="M0 0 C0.99 0.33 1.98 0.66 3 1 C3 2.65 3 4.3 3 6 C1.35 6.33 -0.3 6.66 -2 7 C-2.33 5.35 -2.66 3.7 -3 2 C-2.01 1.34 -1.02 0.68 0 0 Z " fill="#6B6B6A" transform="translate(200,136)"/>
<path d="M0 0 C1.2065625 0.0309375 1.2065625 0.0309375 2.4375 0.0625 C2.7675 0.7225 3.0975 1.3825 3.4375 2.0625 C2.4475 2.3925 1.4575 2.7225 0.4375 3.0625 C-0.2225 2.7325 -0.8825 2.4025 -1.5625 2.0625 C-1.2325 3.0525 -0.9025 4.0425 -0.5625 5.0625 C0.0975 5.3925 0.7575 5.7225 1.4375 6.0625 C1.4375 6.7225 1.4375 7.3825 1.4375 8.0625 C-0.2125 7.7325 -1.8625 7.4025 -3.5625 7.0625 C-3.60504356 5.06295254 -3.60330783 3.06208364 -3.5625 1.0625 C-2.5625 0.0625 -2.5625 0.0625 0 0 Z " fill="#EFEFEC" transform="translate(229.5625,137.9375)"/>
<path d="M0 0 C0.66 0 1.32 0 2 0 C2 1.65 2 3.3 2 5 C2.99 4.67 3.98 4.34 5 4 C4.67 4.99 4.34 5.98 4 7 C3.67 7 3.34 7 3 7 C2.67 8.65 2.34 10.3 2 12 C1.34 12 0.68 12 0 12 C0 8.04 0 4.08 0 0 Z " fill="#090A0B" transform="translate(162,136)"/>
<path d="M0 0 C0.33 0 0.66 0 1 0 C2.48725585 6.68650564 3.27567351 12.23893038 2 19 C1.67 19 1.34 19 1 19 C-0.00926479 14.84373632 -0.10239579 10.95634906 -0.0625 6.6875 C-0.05347656 5.43324219 -0.04445312 4.17898437 -0.03515625 2.88671875 C-0.01775391 1.45779297 -0.01775391 1.45779297 0 0 Z " fill="#F6E3E7" transform="translate(145,14)"/>
<path d="M0 0 C2.475 0.99 2.475 0.99 5 2 C4.34 4.64 3.68 7.28 3 10 C2.01 10 1.02 10 0 10 C0 6.7 0 3.4 0 0 Z " fill="#DBDBDB" transform="translate(317,136)"/>
<path d="M0 0 C0.33 0 0.66 0 1 0 C1 3.3 1 6.6 1 10 C0.01 9.67 -0.98 9.34 -2 9 C-2.625 6.6875 -2.625 6.6875 -3 4 C-1 1 -1 1 0 0 Z " fill="#E4E4E2" transform="translate(116,136)"/>
<path d="M0 0 C1.32 0 2.64 0 4 0 C4 0.99 4 1.98 4 3 C3.34 3 2.68 3 2 3 C2 5.97 2 8.94 2 12 C1.34 12 0.68 12 0 12 C0 8.04 0 4.08 0 0 Z " fill="#121212" transform="translate(211,136)"/>
<path d="M0 0 C0.66 0 1.32 0 2 0 C2 2.64 2 5.28 2 8 C1.01 7.34 0.02 6.68 -1 6 C-1.33 7.98 -1.66 9.96 -2 12 C-2.33 12 -2.66 12 -3 12 C-3 8.7 -3 5.4 -3 2 C-2.01 2 -1.02 2 0 2 C0 1.34 0 0.68 0 0 Z " fill="#D9DADA" transform="translate(180,136)"/>
<path d="M0 0 C0.66 0 1.32 0 2 0 C2 1.65 2 3.3 2 5 C-2.95 5 -7.9 5 -13 5 C-13 4.34 -13 3.68 -13 3 C-9.04 3 -5.08 3 -1 3 C-0.67 2.01 -0.34 1.02 0 0 Z " fill="#121214" transform="translate(310,142)"/>
<path d="M0 0 C1.32 0 2.64 0 4 0 C4 1.98 4 3.96 4 6 C3.01 6 2.02 6 1 6 C0.67 6.99 0.34 7.98 0 9 C0 6.03 0 3.06 0 0 Z " fill="#88898C" transform="translate(3,138)"/>
<path d="M0 0 C2.05078125 0.03255208 4.1015625 0.06510417 6.15234375 0.09765625 C5.82234375 1.08765625 5.49234375 2.07765625 5.15234375 3.09765625 C3.50234375 3.09765625 1.85234375 3.09765625 0.15234375 3.09765625 C-0.17765625 4.74765625 -0.50765625 6.39765625 -0.84765625 8.09765625 C-1.17765625 8.09765625 -1.50765625 8.09765625 -1.84765625 8.09765625 C-2.22828846 5.77157055 -2.5603557 3.43710361 -2.84765625 1.09765625 C-1.84765625 0.09765625 -1.84765625 0.09765625 0 0 Z " fill="#383739" transform="translate(226.84765625,135.90234375)"/>
<path d="M0 0 C0.66 0 1.32 0 2 0 C2 3.3 2 6.6 2 10 C0.68 10.33 -0.64 10.66 -2 11 C-1.34 7.37 -0.68 3.74 0 0 Z " fill="#323232" transform="translate(190,136)"/>
<path d="M0 0 C0.33 0 0.66 0 1 0 C1 3.3 1 6.6 1 10 C0.34 10 -0.32 10 -1 10 C-1 9.01 -1 8.02 -1 7 C-1.66 6.67 -2.32 6.34 -3 6 C-1.125 1.125 -1.125 1.125 0 0 Z " fill="#F56019" transform="translate(232,50)"/>
<path d="M0 0 C0.33 0 0.66 0 1 0 C1 3.63 1 7.26 1 11 C0.01 11.495 0.01 11.495 -1 12 C-1.66 10.02 -2.32 8.04 -3 6 C-2.34 5.67 -1.68 5.34 -1 5 C-0.34444881 2.47266765 -0.34444881 2.47266765 0 0 Z " fill="#DCDCDC" transform="translate(75,136)"/>
<path d="M0 0 C-1.45255699 3.82946843 -3.42895561 5.12050295 -7 7 C-7.99 6.34 -8.98 5.68 -10 5 C-8.71186658 4.16121545 -7.41936744 3.32913217 -6.125 2.5 C-5.40570313 2.0359375 -4.68640625 1.571875 -3.9453125 1.09375 C-2 0 -2 0 0 0 Z " fill="#2305E2" transform="translate(224,60)"/>
<path d="M0 0 C0 1.32 0 2.64 0 4 C-1.65 4 -3.3 4 -5 4 C-5 5.98 -5 7.96 -5 10 C-5.33 10 -5.66 10 -6 10 C-6.36567164 3.539801 -6.36567164 3.539801 -4.6875 1.0625 C-3 0 -3 0 0 0 Z " fill="#D31836" transform="translate(233,25)"/>
<path d="M0 0 C-0.33 0.99 -0.66 1.98 -1 3 C-2.093125 2.814375 -3.18625 2.62875 -4.3125 2.4375 C-7.93624133 1.7421932 -7.93624133 1.7421932 -11 3 C-13.6875 2.5625 -13.6875 2.5625 -16 2 C-16 1.67 -16 1.34 -16 1 C-10.61509359 0.08342019 -5.45769811 -0.11138159 0 0 Z " fill="#E7080D" transform="translate(197,14)"/>
<path d="M0 0 C1.32 0.33 2.64 0.66 4 1 C3.67 1.66 3.34 2.32 3 3 C2.34 3 1.68 3 1 3 C1.33 5.64 1.66 8.28 2 11 C1.34 11 0.68 11 0 11 C0 7.37 0 3.74 0 0 Z " fill="#0A0A0B" transform="translate(117,136)"/>
<path d="M0 0 C2.31 0 4.62 0 7 0 C7.33 1.65 7.66 3.3 8 5 C7.34 4.34 6.68 3.68 6 3 C3.42938689 2.35232207 3.42938689 2.35232207 1 2 C0.67 2.66 0.34 3.32 0 4 C0 2.68 0 1.36 0 0 Z " fill="#18181A" transform="translate(272,136)"/>
<path d="M0 0 C0.33 0 0.66 0 1 0 C1.33 3.3 1.66 6.6 2 10 C0.68 9.67 -0.64 9.34 -2 9 C-1.125 1.125 -1.125 1.125 0 0 Z " fill="#F2F2F1" transform="translate(135,136)"/>
<path d="M0 0 C2 1 2 1 3 2 C3.04080783 3.99958364 3.04254356 6.00045254 3 8 C2.01 8 1.02 8 0 8 C-0.38063221 5.6739143 -0.71269945 3.33944736 -1 1 C-0.67 0.67 -0.34 0.34 0 0 Z " fill="#888886" transform="translate(108,136)"/>
<path d="M0 0 C0 0.66 0 1.32 0 2 C-1.7578125 2.9765625 -3.515625 3.953125 -5.2734375 4.9296875 C-7.1612614 6.00897274 -7.1612614 6.00897274 -9 8 C-11.125 7.625 -11.125 7.625 -13 7 C-11.21190303 5.82786955 -9.41940875 4.66244474 -7.625 3.5 C-6.62726563 2.8503125 -5.62953125 2.200625 -4.6015625 1.53125 C-2 0 -2 0 0 0 Z " fill="#E97E10" transform="translate(219,70)"/>
<path d="M0 0 C0.28875 0.969375 0.5775 1.93875 0.875 2.9375 C1.64214682 6.10664203 1.64214682 6.10664203 4 7 C0 7 0 7 -1.6875 5.6875 C-3 4 -3 4 -4 1 C-2 0 -2 0 0 0 Z " fill="#2C2C2C" transform="translate(122,138)"/>
<path d="M0 0 C1.65 0.33 3.3 0.66 5 1 C4.67 2.98 4.34 4.96 4 7 C3.67 6.34 3.34 5.68 3 5 C0.97536745 4.34786708 0.97536745 4.34786708 -1 4 C-0.01 4 0.98 4 2 4 C2 3.34 2 2.68 2 2 C1.34 2 0.68 2 0 2 C0 1.34 0 0.68 0 0 Z " fill="#D1D1CE" transform="translate(146,139)"/>
<path d="M0 0 C0.99 0 1.98 0 3 0 C3 3.63 3 7.26 3 11 C2.34 11 1.68 11 1 11 C1 8.36 1 5.72 1 3 C0.34 3.66 -0.32 4.32 -1 5 C-0.67 3.35 -0.34 1.7 0 0 Z " fill="#0B0C0C" transform="translate(99,136)"/>
<path d="M0 0 C1.32 0.33 2.64 0.66 4 1 C3.67 2.32 3.34 3.64 3 5 C2.67 4.67 2.34 4.34 2 4 C1.67 6.31 1.34 8.62 1 11 C0.67 11 0.34 11 0 11 C0 7.37 0 3.74 0 0 Z " fill="#0A0B0C" transform="translate(246,136)"/>
<path d="M0 0 C0.66 0 1.32 0 2 0 C2.66 2.97 3.32 5.94 4 9 C3.01 8.67 2.02 8.34 1 8 C-0.35439668 5.29120665 -0.06501451 2.99066732 0 0 Z " fill="#2A2A2A" transform="translate(223,139)"/>
<path d="M0 0 C0.33 0 0.66 0 1 0 C1 3.3 1 6.6 1 10 C-0.32 10.33 -1.64 10.66 -3 11 C-2.53199289 6.94393835 -2.12046792 3.53411321 0 0 Z " fill="#B0B0AF" transform="translate(283,136)"/>
<path d="M0 0 C0.66 0.33 1.32 0.66 2 1 C0.3125 3.5 0.3125 3.5 -2 6 C-4.75 6.3125 -4.75 6.3125 -7 6 C-4.74259377 3.66475218 -2.7194239 1.81294927 0 0 Z " fill="#1119FB" transform="translate(55,119)"/>
<path d="M0 0 C2.97 0 5.94 0 9 0 C5.99382731 3.00617269 3.17618402 2.59585316 -1 3 C-0.67 2.01 -0.34 1.02 0 0 Z " fill="#1B19FE" transform="translate(252,55)"/>
<path d="M0 0 C0.99 0 1.98 0 3 0 C3 2.64 3 5.28 3 8 C0.52557871 5.84832931 -0.56238367 4.28212246 -1 1 C-0.67 0.67 -0.34 0.34 0 0 Z " fill="#D5D5D5" transform="translate(216,136)"/>
<path d="M0 0 C0.99 0 1.98 0 3 0 C3 3.63 3 7.26 3 11 C2.67 11 2.34 11 2 11 C2 8.36 2 5.72 2 3 C1.01 3.33 0.02 3.66 -1 4 C-0.67 2.68 -0.34 1.36 0 0 Z " fill="#0A0B0C" transform="translate(40,136)"/>
<path d="M0 0 C0.99 0.33 1.98 0.66 3 1 C-1.455 3.97 -1.455 3.97 -6 7 C-6.66 6.67 -7.32 6.34 -8 6 C-6.7391988 4.96680187 -5.46596742 3.94875621 -4.1875 2.9375 C-3.47980469 2.36902344 -2.77210937 1.80054687 -2.04296875 1.21484375 C-1.36878906 0.81394531 -0.69460937 0.41304688 0 0 Z " fill="#F5A209" transform="translate(107,85)"/>
<path d="M0 0 C1.98 0 3.96 0 6 0 C5.360625 0.61875 4.72125 1.2375 4.0625 1.875 C1.96116416 3.82597612 1.96116416 3.82597612 1 6 C2.98 6.495 2.98 6.495 5 7 C3.35 7 1.7 7 0 7 C0 4.69 0 2.38 0 0 Z " fill="#1C06D2" transform="translate(228,29)"/>
<path d="M0 0 C0.66 0.33 1.32 0.66 2 1 C2 2.98 2 4.96 2 7 C0.68 7 -0.64 7 -2 7 C-1.125 2.25 -1.125 2.25 0 0 Z " fill="#848385" transform="translate(324,139)"/>
<path d="M0 0 C0.33 0 0.66 0 1 0 C1.125 3.375 1.125 3.375 1 7 C0.34 7.66 -0.32 8.32 -1 9 C-1.625 6.1875 -1.625 6.1875 -2 3 C-1.34 2.01 -0.68 1.02 0 0 Z " fill="#B9BAB9" transform="translate(100,138)"/>
<path d="M0 0 C0.66 0 1.32 0 2 0 C2 2.64 2 5.28 2 8 C1.01 7.67 0.02 7.34 -1 7 C-0.67 4.69 -0.34 2.38 0 0 Z " fill="#F0EFEE" transform="translate(203,138)"/>
<path d="M0 0 C-1 3 -1 3 -3.375 4.75 C-6 6 -6 6 -9 5 C-7.87926138 4.16094435 -6.75325453 3.32892169 -5.625 2.5 C-4.99851563 2.0359375 -4.37203125 1.571875 -3.7265625 1.09375 C-2 0 -2 0 0 0 Z " fill="#E97910" transform="translate(203,71)"/>
<path d="M0 0 C0.66 0.33 1.32 0.66 2 1 C-2.455 3.97 -2.455 3.97 -7 7 C-7 6.01 -7 5.02 -7 4 C-1.7265625 0.77734375 -1.7265625 0.77734375 0 0 Z " fill="#EF630C" transform="translate(149,60)"/>
<path d="M0 0 C1.32 1.65 2.64 3.3 4 5 C3.67 5.66 3.34 6.32 3 7 C2.01 7.33 1.02 7.66 0 8 C0 5.36 0 2.72 0 0 Z " fill="#D4D4D3" transform="translate(213,140)"/>
<path d="M0 0 C0.33 0 0.66 0 1 0 C1.33 3.63 1.66 7.26 2 11 C0.68 11.33 -0.64 11.66 -2 12 C-1.34 8.04 -0.68 4.08 0 0 Z " fill="#D6D6D5" transform="translate(129,136)"/>
<path d="M0 0 C2.97 0 5.94 0 9 0 C8.01 0.33 7.02 0.66 6 1 C4.79117904 3.00016466 4.79117904 3.00016466 4 5 C2.68 3.35 1.36 1.7 0 0 Z " fill="#EAD6D8" transform="translate(258,50)"/>
<path d="M0 0 C2.97 0 5.94 0 9 0 C7.3125 1.5625 7.3125 1.5625 5 3 C2.25 2.6875 2.25 2.6875 0 2 C0 1.34 0 0.68 0 0 Z " fill="#F53607" transform="translate(158,48)"/>
<path d="M0 0 C1.32 1.65 2.64 3.3 4 5 C3.67 5.66 3.34 6.32 3 7 C2.01 7 1.02 7 0 7 C0 4.69 0 2.38 0 0 Z " fill="#DDDDDB" transform="translate(119,140)"/>
<path d="M0 0 C0.33 0 0.66 0 1 0 C1 3.96 1 7.92 1 12 C0.01 12 -0.98 12 -2 12 C-1.34 8.04 -0.68 4.08 0 0 Z " fill="#0A0A0A" transform="translate(254,136)"/>
<path d="M0 0 C0.33 0 0.66 0 1 0 C1 2.31 1 4.62 1 7 C-0.32 7.33 -1.64 7.66 -3 8 C-2.01 5.36 -1.02 2.72 0 0 Z " fill="#191919" transform="translate(107,139)"/>
<path d="M0 0 C0.33 0.99 0.66 1.98 1 3 C2.32 2.67 3.64 2.34 5 2 C4.67 2.99 4.34 3.98 4 5 C3.01 5 2.02 5 1 5 C0.67 5.99 0.34 6.98 0 8 C0 5.36 0 2.72 0 0 Z " fill="#454547" transform="translate(48,138)"/>
</svg>
